P1
# Un exemple de fichier pbm
9 6
0 0 0 0 1 0 0 0 0
0 0 0 0 1 0 0 0 0
0 0 0 0 1 0 1 0 0
1 1 1 1 1 1 1 1 1
0 0 0 0 1 0 0 0 0
0 0 0 0 1 0 0 0 0
